# xmcd
#
# Track frame offsets:
#	150
#	13503
#	29854
#	47058
#	61489
#	77264
#	97686
#	114493
#	131437
#	147043
#	166587
#
# Disc length: 2496 seconds
#
# Revision: 0
# Processed by: cddbd v1.5.2PL0 Copyright (c) Steve Scherf et al.
# Submitted via: dBpowerAMP V4.0
#
DISCID=7e09be0b
DTITLE=Jali - Des jours and des lunes
DYEAR=2011
DGENRE=Undefined
TTITLE0=21 Grammes
TTITLE1=Española
TTITLE2=Mon Paris
TTITLE3=Bonnie
TTITLE4=Des ailes
TTITLE5=Rien de neuf sous le soleil
TTITLE6=Et si
TTITLE7=Les petits hommes verts
TTITLE8=Un jour ou l'autre
TTITLE9=Comme un enfant
TTITLE10=Sel et citron
EXTD=
EXTT0=
EXTT1=
EXTT2=
EXTT3=
EXTT4=
EXTT5=
EXTT6=
EXTT7=
EXTT8=
EXTT9=
EXTT10=
PLAYORDER=
